<svg xmlns="http://www.w3.org/2000/svg" viewBox="0 0 100 100" width="100" height="100">
  <circle cx="50" cy="55" r="30" fill="#3b82f6"/>
  <ellipse cx="28" cy="38" rx="10" ry="14" fill="#3b82f6"/>
  <ellipse cx="72" cy="38" rx="10" ry="14" fill="#3b82f6"/>
  <ellipse cx="28" cy="40" rx="6" ry="9" fill="#60a5fa"/>
  <ellipse cx="72" cy="40" rx="6" ry="9" fill="#60a5fa"/>
  <circle cx="40" cy="50" r="4" fill="#1e293b"/>
  <circle cx="60" cy="50" r="4" fill="#1e293b"/>
  <circle cx="41" cy="49" r="1.5" fill="white"/>
  <circle cx="61" cy="49" r="1.5" fill="white"/>
  <ellipse cx="50" cy="62" rx="5" ry="4" fill="#1e293b"/>
  <path d="M50 66 L50 70 M50 70 L45 72 M50 70 L55 72" stroke="#1e293b" stroke-width="1.5" fill="none" stroke-linecap="round"/>
  <path d="M40 75 Q50 82 60 75" stroke="#1e293b" stroke-width="2" fill="none" stroke-linecap="round"/>
  <circle cx="35" cy="58" r="2" fill="#93c5fd" opacity="0.6"/>
  <circle cx="65" cy="58" r="2" fill="#93c5fd" opacity="0.6"/>
</svg>
